<?xml version="1.0" encoding="utf-8"?>
<!-- Generator: Adobe Illustrator 24.1.3, SVG Export Plug-In . SVG Version: 6.00 Build 0)  -->
<svg version="1.1" id="Layer_1" xmlns="http://www.w3.org/2000/svg" xmlns:xlink="http://www.w3.org/1999/xlink" x="0px" y="0px"
	 viewBox="0 0 150 150" style="enable-background:new 0 0 150 150;" xml:space="preserve">
<style type="text/css">
	.st0{fill:#6FDDFF;}
	.st1{fill:#29ABE2;}
	.st2{fill:#007CB0;}
</style>
<path class="st0" d="M110.9,104.1l3.2-1.7l19.4-10.5l2.3-1.3c5-2.7,11.2-1,14.2,3.8L104.2,126c-6.2,3.1-13.2,4.1-20,2.8l-26.5-4.9
	c-2.4-0.6-5-0.3-7.2,1L36.1,134l-10-32.9h0.1c3.1-0.6,6-2,8.3-4.1l4.5-3.9c8.8-6.6,20.5-7.7,30.4-3l1.8,0.9c2.8,1.4,6,2.1,9.1,2.1
	h17.6C104.4,93.1,109.9,97.8,110.9,104.1z"/>
<path class="st1" d="M135.3,54.8v12.8h-35.1V53c0-2.9-0.9-5.7-2.5-8.1c2.2-1.8,4.9-2.8,7.7-2.8c3.6,4.9,10.5,5.9,15.4,2.3
	c0,0,0,0,0,0c0.7-0.5,1.4-1.2,2-1.9c0.1-0.1,0.2-0.3,0.4-0.4C129.9,42.4,135.2,48,135.3,54.8z"/>
<path class="st1" d="M133.5,91.9L133.5,91.9l-19.4,10.5l-3.2,1.7c-0.5-3-2-5.8-4.3-7.8l12.6-6.7l3.1-1.7
	C126.2,85.9,131.4,88.1,133.5,91.9z"/>
<path class="st1" d="M125.5,20.6v5.7c0.3,6.3-4.6,11.6-10.9,11.9c-6.3,0.3-11.6-4.6-11.9-10.9c0-0.2,0-0.4,0-0.6v-6.1
	c0.1-6.3,5.2-11.4,11.5-11.3c6.1,0,11.1,4.9,11.3,10.9L125.5,20.6z"/>
<path class="st1" d="M118.9,89.3l0.2,0.3l-12.6,6.7c-2.4-2.1-5.4-3.3-8.6-3.3H94l10.4-5.7C109.1,84.7,115.1,85.5,118.9,89.3z"/>
<path class="st0" d="M97.6,44.9c1.6,2.4,2.5,5.2,2.5,8.2v21.2H51.8V53c0-8,6.3-14.5,14.3-14.7c4.1,5.6,12,6.8,17.6,2.7
	c0.9-0.6,1.7-1.4,2.3-2.2c0.1-0.2,0.3-0.3,0.4-0.5C91,38.6,95.1,41,97.6,44.9z"/>
<path class="st0" d="M89,13.9v6.5c0,7.2-5.8,13-13,13c-7.2,0-13-5.8-13-13c0,0,0,0,0,0v-6.5c0-7.2,5.8-13,13-13
	C83.2,0.8,89,6.7,89,13.9C89,13.9,89,13.9,89,13.9z"/>
<path class="st1" d="M53.7,44.4l0.5,0.5c-1.6,2.4-2.4,5.2-2.4,8.1v14.7H16.6V54.8c0-7,5.6-12.7,12.6-12.8c3.6,4.9,10.5,5.9,15.4,2.3
	c0,0,0,0,0,0c0.7-0.5,1.4-1.2,2-1.9c0.1-0.1,0.2-0.3,0.4-0.4C49.4,42.2,51.7,43,53.7,44.4z"/>
<path class="st1" d="M49.2,20.6v5.7c-0.1,6.3-5.2,11.4-11.5,11.3c-6.1,0-11.1-4.9-11.3-10.9v-6.1c0.1-6.3,5.2-11.4,11.5-11.3
	c6.1,0,11.1,4.9,11.3,10.9V20.6z"/>
<path class="st1" d="M111,108.2L111,108.2l-15.1-0.7c-4.4-0.2-8.8,0-13.2,0.6c-1.1,0.1-2-0.7-2.1-1.8c-0.1-1,0.6-1.9,1.6-2.1
	c4.6-0.6,9.3-0.9,13.9-0.6l12.8,0.6c-1-5.3-5.6-9.1-10.9-9.1H80.3c-3.5,0-6.9-0.8-10-2.3l-1.8-0.9c-9.2-4.5-20.1-3.4-28.3,2.7
	l-4.4,3.9c-2.6,2.3-5.8,3.9-9.3,4.5c-1.1,0.2-2.1-0.6-2.3-1.7c-0.2-1,0.5-2,1.5-2.2l0,0c2.7-0.5,5.3-1.8,7.3-3.6l4.4-3.9l0.1-0.1
	c9.4-7.1,21.9-8.3,32.5-3.1l1.8,0.9c2.6,1.2,5.4,1.9,8.3,1.9h17.7c8.3,0,15.1,6.8,15.1,15.1l0,0C113,107.3,112.1,108.2,111,108.2
	L111,108.2z"/>
<path class="st2" d="M36.1,134l4.6,15.2H8.9L1.8,91.1h21.3l3,10L36.1,134z M27.4,139c0-2.3-1.8-4.3-4.2-4.3s-4.3,1.8-4.3,4.2
	c0,2.3,1.8,4.3,4.2,4.3c0,0,0.1,0,0.1,0l0,0C25.6,143.2,27.4,141.3,27.4,139z"/>
<path class="st1" d="M27.4,139c0,2.3-1.9,4.3-4.3,4.3c-2.3,0-4.3-1.9-4.3-4.3c0-2.3,1.9-4.3,4.3-4.3c0,0,0,0,0.1,0l0,0
	C25.6,134.8,27.4,136.7,27.4,139z"/>
</svg>
