<?xml version="1.0" encoding="utf-8"?>
<!-- Generator: Adobe Illustrator 24.1.3, SVG Export Plug-In . SVG Version: 6.00 Build 0)  -->
<svg version="1.1" id="Layer_1" xmlns="http://www.w3.org/2000/svg" xmlns:xlink="http://www.w3.org/1999/xlink" x="0px" y="0px"
	 viewBox="0 0 150 150" style="enable-background:new 0 0 150 150;" xml:space="preserve">
<style type="text/css">
	.st0{fill:#F5F5FF;}
	.st1{fill:#E2E7FA;}
	.st2{fill:#C5D2E5;}
	.st3{fill:#6FDDFF;}
	.st4{fill:#007CB0;}
</style>
<path class="st0" d="M117.8,132.3H33v-19.5c0-15,7.2-29.1,19.3-37.8C40.2,66.2,33,52.1,33,37.1V17.7h84.8v19.5
	c0,15-7.2,29.1-19.3,37.9c12.1,8.8,19.3,22.9,19.3,37.8V132.3z"/>
<path class="st1" d="M75.4,132.3h42.4v-19.5c0-15-7.2-29.1-19.3-37.8c12.1-8.8,19.3-22.9,19.3-37.9V17.7H75.4V132.3z"/>
<path class="st1" d="M41.7,132.3H109v-19.5c0-14.4-8.1-27.5-21-33.9c-2.2-1.1-3-3.7-2-5.9c0.4-0.8,1.1-1.5,2-2
	c12.9-6.4,21-19.5,21-33.9V17.7H41.7v19.5c0,14.4,8.1,27.5,21,33.9c2.2,1.1,3,3.7,2,5.9c-0.4,0.8-1.1,1.5-2,2
	c-12.9,6.4-21,19.5-21,33.9V132.3z"/>
<path class="st2" d="M75.4,132.3H109v-19.5c0-14.4-8.1-27.5-21-33.9c-2.2-1.1-3-3.7-2-5.9c0.4-0.8,1.1-1.5,2-2
	c12.9-6.4,21-19.5,21-33.9V17.7H75.4V132.3z"/>
<path class="st3" d="M75.4,100.5c-2.4,0-4.4-2-4.4-4.4V62.7c-0.1-2.4,1.8-4.5,4.2-4.6c2.4-0.1,4.5,1.8,4.6,4.2c0,0.1,0,0.3,0,0.4
	v33.4C79.8,98.5,77.8,100.5,75.4,100.5C75.4,100.5,75.4,100.5,75.4,100.5z"/>
<path class="st4" d="M79.7,96.1V62.7c0-2.4-2-4.4-4.4-4.4c0,0,0,0,0,0l0,0v42.2C77.8,100.5,79.7,98.5,79.7,96.1
	C79.7,96.1,79.7,96.1,79.7,96.1z"/>
<path class="st3" d="M100.1,118.8c0-0.1,0-0.3,0-0.4c-1.1-9.8-7.1-18.5-16-22.8l-6.8-3.4c-1.2-0.6-2.7-0.6-3.9,0l-6.8,3.4
	c-8.9,4.4-14.9,13-15.9,22.8c0,0.1,0,0.3,0,0.4l-0.2,13.5h49.7L100.1,118.8z"/>
<path class="st3" d="M75.4,67.1c-0.7,0-1.4-0.2-2-0.5l-6.8-3.4c-7.7-3.9-13.3-11-15.3-19.4c-0.5-2.4,0.9-4.7,3.3-5.3c0,0,0,0,0,0
	c0.3-0.1,0.7-0.1,1-0.1h39.6c2.4,0,4.4,2,4.4,4.4c0,0.3,0,0.7-0.1,1c-2,8.4-7.6,15.5-15.3,19.4l-6.8,3.4
	C76.7,66.9,76,67.1,75.4,67.1L75.4,67.1z"/>
<path class="st4" d="M100.2,132.3l-0.2-13.5c0-0.1,0-0.3,0-0.4C99,108.5,93,99.9,84.1,95.5l-6.8-3.4c-0.6-0.3-1.3-0.5-2-0.5v40.6
	H100.2z"/>
<path class="st4" d="M95.2,38.4H75.4v28.6c0.7,0,1.4-0.2,2-0.5l6.8-3.4c7.7-3.9,13.4-11,15.3-19.4c0.6-2.4-0.9-4.7-3.2-5.3
	c0,0,0,0,0,0C95.9,38.5,95.5,38.4,95.2,38.4z"/>
<path class="st3" d="M116.3,149.9H34.4c-5.7-0.2-10.1-4.9-9.9-10.6c0.2-5.4,4.5-9.7,9.9-9.9h81.9c5.7,0.2,10.1,4.9,9.9,10.6
	C126,145.3,121.7,149.7,116.3,149.9z"/>
<path class="st3" d="M116.3,20.6H34.4c-5.7-0.2-10.1-4.9-9.9-10.6c0.2-5.4,4.5-9.7,9.9-9.9h81.9c5.7,0.2,10.1,4.9,9.9,10.6
	C126,16.1,121.7,20.5,116.3,20.6z"/>
<path class="st4" d="M116.3,129.4H75.4v20.5h40.9c5.7-0.2,10.1-4.9,9.9-10.6C126,133.9,121.7,129.5,116.3,129.4z"/>
<path class="st4" d="M116.3,0.2H75.4v20.5h40.9c5.7-0.2,10.1-4.9,9.9-10.6C126,4.7,121.7,0.3,116.3,0.2z"/>
</svg>
