<?xml version="1.0" encoding="utf-8"?>
<!-- Generator: Adobe Illustrator 24.1.3, SVG Export Plug-In . SVG Version: 6.00 Build 0)  -->
<svg version="1.1" id="Layer_1" xmlns="http://www.w3.org/2000/svg" xmlns:xlink="http://www.w3.org/1999/xlink" x="0px" y="0px"
	 viewBox="0 0 150 150" style="enable-background:new 0 0 150 150;" xml:space="preserve">
<style type="text/css">
	.st0{fill:#D6D6D6;}
	.st1{fill:#EFEFEF;}
	.st2{fill:#ADADAD;}
	.st3{fill:#007CB0;}
	.st4{fill:#6FDDFF;}
</style>
<path class="st0" d="M110.8,92v2l0.6,8.7l-7.3,7.1c0,0-34.6-39.2-34-39.3c0.5-0.1,14.2-4.1,14.2-4.1L110.8,92z"/>
<path class="st1" d="M107.1,103L80.5,76.5L62.4,57.7c-1.2-1.2-2.7-2.2-4.4-2.8l-6.2-2.4l-4-4.1l-6.4-8.3L13,68.6l8.7,9.3l8.7,8.7
	v5.6c0,2,0.8,4,2.3,5.4l10.1,9.6L69,127.3l6.8,6.9c2.2,2.2,5.7,2.2,7.8,0c2.2-2.2,2.2-5.7,0-7.8c2.2,2.1,5.7,2,7.8-0.3
	c2-2.1,2-5.4,0-7.5c2.2,2.2,5.6,2.2,7.8,0c2.2-2.2,2.2-5.6,0-7.8c2.1,2.2,5.6,2.3,7.8,0.2c2.2-2.1,2.3-5.6,0.2-7.8L107.1,103
	L107.1,103z"/>
<path class="st0" d="M69.3,119.4c2.1,2.1,2.1,5.6,0,7.7l0,0l-5.8,5.8c-2.1,2.1-5.6,2.1-7.7,0l0,0l-0.1-0.1c-2.1-2.1-2.1-5.5,0-7.7
	l5.1-5.1l0.7-0.7c2.1-2.1,5.5-2.1,7.7,0l0,0l0,0L69.3,119.4z"/>
<path class="st0" d="M60.8,112.3c2.1,2.1,2.1,5.5,0,7.7l0,0l0,0l-5.1,5.1c-2.2,2.1-5.6,2-7.7-0.2c-2-2.1-2-5.4,0-7.5l5.1-5.1
	C55.3,110.2,58.7,110.2,60.8,112.3L60.8,112.3z"/>
<path class="st0" d="M55.5,102.2c2.1,2.1,2.1,5.5,0,7.7l0,0l0,0l-2.4,2.4l-5.1,5.1c-2.3,1.9-5.7,1.6-7.6-0.7c-1.7-2-1.7-4.9,0-6.9
	l4.7-4.7l2.9-2.9C50,100.1,53.4,100.1,55.5,102.2z"/>
<path class="st0" d="M45,97.4c2.1,2.1,2.1,5.5,0,7.7l0,0l-4.7,4.7c-2.2,2-5.6,1.9-7.7-0.3c-1.9-2.1-1.9-5.3,0-7.3l4.7-4.7
	C39.4,95.3,42.9,95.3,45,97.4L45,97.4L45,97.4z"/>
<path class="st2" d="M59.3,128.8l5.2-5.1l0.6-0.7c1.4-1.4,3.5-1.9,5.5-1.3c-0.3-0.8-0.7-1.6-1.3-2.2l-0.1-0.1
	c-2.1-2.1-5.5-2.1-7.7,0l0,0l0,0l-0.7,0.7l-5.1,5.1c-2.1,2.1-2.1,5.5,0,7.7l0,0l0.1,0.1c0.6,0.6,1.4,1.1,2.2,1.3
	C57.4,132.3,57.9,130.2,59.3,128.8L59.3,128.8z"/>
<path class="st2" d="M51.6,121.1l5.1-5.1c1.4-1.4,3.5-1.9,5.4-1.4c-0.9-2.9-3.9-4.5-6.8-3.7c-0.9,0.3-1.6,0.7-2.3,1.4l-5.1,5.1
	c-2.1,2.1-2.1,5.6,0,7.7c0.6,0.6,1.4,1.1,2.3,1.3C49.7,124.5,50.2,122.5,51.6,121.1z"/>
<path class="st2" d="M44,113.4l4.7-4.7l2.9-2.9c1.4-1.4,3.5-1.9,5.4-1.3c-0.8-2.9-3.8-4.5-6.7-3.7c-0.9,0.3-1.7,0.7-2.3,1.4
	l-2.9,2.9l-4.7,4.7c-2.1,2.1-2.1,5.6,0,7.7c0.6,0.6,1.4,1.1,2.3,1.4C42,116.9,42.5,114.8,44,113.4z"/>
<path class="st2" d="M36.3,105.7L41,101c1.4-1.4,3.5-1.9,5.4-1.4c-0.9-2.9-3.9-4.5-6.7-3.7c-0.9,0.3-1.6,0.7-2.3,1.4l-4.7,4.7
	c-2.1,2.1-2.1,5.6,0,7.7c0.6,0.6,1.4,1.1,2.3,1.4C34.4,109.2,34.9,107.2,36.3,105.7L36.3,105.7z"/>
<path class="st0" d="M111.9,50.5l25.5,25.8l-3.6,3.9l-22.4,22.5L79.7,73.2H69.2l-6.8,5.6c-2.7,2.3-6.8,1.9-9.1-0.8
	c-2.2-2.6-2-6.4,0.4-8.7l8.2-8.2c0.7-0.7,1.7-1.1,2.7-1.1h21.6c0.7,0,1.4,0.2,2.1,0.5l8,4.5c0.4,0.2,0.8,0.1,1.1-0.2l8-7.9
	L111.9,50.5z"/>
<path class="st2" d="M58.4,76.1c0-1.7,0.7-3.4,1.9-4.6l5.7-5.7c2.3-2.3,5.4-3.6,8.7-3.6h16.8l-3.2-1.8c-0.6-0.3-1.3-0.4-2-0.4H64.6
	c-1,0-2,0.4-2.7,1.1l-8.2,8.2c-2.5,2.5-2.5,6.6,0,9.1c1.6,1.6,3.8,2.2,6,1.7C58.9,79,58.4,77.6,58.4,76.1L58.4,76.1z"/>
<path class="st3" d="M145.1,74.7l-6.7,6.7c-1,0.9-2.5,0.9-3.4,0l-28.6-27.3c-1-0.9-1-2.5-0.1-3.5l0,0l0,0L120.9,36c1-1,2.6-1,3.6,0
	c0.1,0.1,0.3,0.3,0.4,0.5l20.5,35C146,72.6,145.8,73.9,145.1,74.7L145.1,74.7z"/>
<path class="st4" d="M5.1,63c-0.7,0.7-0.7,1.7,0,2.4l0,0l9.9,9.9c1.5,1.5,3.9,1.5,5.4,0l0,0L48,47.8c1.5-1.5,1.5-3.9,0-5.4l0,0l0,0
	l-9.5-9.5c-0.7-0.7-1.7-0.7-2.4,0L5.1,63z"/>
<path d="M120.9,90.2L109.1,102c-0.2-0.2-0.3-0.4-0.5-0.5L93.4,86.2c-1-0.7-2.3-0.5-3,0.5c-0.5,0.8-0.5,1.8,0,2.5l15.2,15.2
	c1.3,1.3,1.3,3.4,0,4.7c-1.3,1.3-3.4,1.3-4.7,0l0,0l-8.5-8.5c-1-0.7-2.3-0.5-3,0.5c-0.5,0.8-0.5,1.8,0,2.5l8.5,8.5l0,0
	c1.3,1.3,1.3,3.4,0,4.7c-1.3,1.3-3.4,1.3-4.7,0l0,0l-8.5-8.5c-1-0.7-2.3-0.5-3,0.5c-0.5,0.8-0.5,1.8,0,2.5l0,0L90,120
	c1.4,1.2,1.5,3.4,0.3,4.8s-3.4,1.5-4.8,0.3l0,0c-0.1-0.1-0.2-0.2-0.2-0.2l-8.5-8.5c-0.9-0.7-2.3-0.5-3,0.4c-0.6,0.8-0.6,1.8,0,2.6
	l8.4,8.6c1.3,1.3,1.3,3.4,0,4.7s-3.4,1.3-4.7,0l0,0l-5.5-5.5c1.8-3,1.3-6.8-1.1-9.3l-0.1-0.1c-1.6-1.6-3.9-2.4-6.1-2.2
	c-0.2-3.3-2.6-6-5.7-6.8c1.5-3.9-0.5-8.3-4.4-9.8c-1.9-0.7-4.1-0.7-6,0.2c-0.4-1.2-1-2.4-1.9-3.3c-3-3-7.8-3-10.7,0l-0.9,0.9
	l-0.6-0.7c-1-1-1.6-2.4-1.6-3.9v-5.7c0-0.6-0.2-1.1-0.6-1.5l-9.2-9.2l2.6-2.6c0.7-1,0.5-2.3-0.5-3c-0.8-0.5-1.8-0.5-2.5,0l-3.5,3.5
	c-0.7,0.7-1.7,0.7-2.4,0l-11.4-11c-0.7-1-2-1.2-3-0.5s-1.2,2-0.5,3c0.1,0.2,0.3,0.4,0.5,0.5l0,0l11.1,11.1c1.5,1.5,3.7,2.1,5.7,1.6
	l9.2,9.2v4.7c0,2.6,1,5.1,2.9,7L32,100l-0.7,0.7c-3,3-3,7.8,0,10.7c1.4,1.4,3.4,2.2,5.4,2.2h0.1v0.1c0,4.2,3.4,7.6,7.6,7.6l0,0h0.1
	c-0.1,4.2,3.3,7.6,7.4,7.7l0,0h0.2c0,2,0.8,4,2.2,5.5l0.1,0.1c3,3,7.8,3,10.7,0l0,0l4-4l5.3,5.3c3,3,7.9,3,10.8,0
	c1.4-1.5,2.3-3.4,2.2-5.5h0.1c4.2,0,7.7-3.4,7.7-7.6l0,0v-0.2h0.1c4.2,0,7.7-3.4,7.7-7.6l0,0l0,0v-0.1h0.2c4.2,0,7.7-3.4,7.7-7.6
	l0,0c0-0.2,0-0.4,0-0.5L124,93.7c0.7-1,0.5-2.3-0.5-3c-0.8-0.5-1.8-0.5-2.5,0l0,0L120.9,90.2z M34.2,108.2c-1.3-1.3-1.3-3.3,0-4.6
	l0,0l4.7-4.7c1.3-1.3,3.3-1.3,4.6,0s1.3,3.3,0,4.6l-4.6,4.7C37.6,109.5,35.5,109.5,34.2,108.2C34.2,108.3,34.2,108.2,34.2,108.2z
	 M44.2,116.9c-1.8,0-3.3-1.5-3.2-3.3c0-0.9,0.3-1.7,0.9-2.3l4.7-4.7l2.9-2.9c1.3-1.2,3.4-1.1,4.6,0.2c1.1,1.2,1.1,3.1,0,4.4
	l-7.5,7.6C45.9,116.5,45.1,116.9,44.2,116.9L44.2,116.9z M49.5,123.6c-1.3-1.3-1.3-3.3,0-4.6l0,0l5.1-5.1c1.3-1.3,3.3-1.3,4.6,0
	s1.3,3.3,0,4.6l-5.1,5.1C52.9,124.9,50.8,124.9,49.5,123.6L49.5,123.6L49.5,123.6z M61.9,131.4c-1.3,1.3-3.3,1.3-4.6,0l0,0l-0.1-0.1
	c-1.3-1.3-1.3-3.3,0-4.6l0,0l5.1-5.1l0,0l0.6-0.6c1.3-1.3,3.3-1.3,4.6,0l0.1,0.1c1.3,1.3,1.3,3.3,0,4.6l0,0L61.9,131.4z"/>
<path d="M148,71.7c-0.8-0.8-2.2-0.8-3,0l-8.1,8c-0.1,0.1-0.3,0.1-0.4,0l0,0l0,0l-28.6-27.2c-0.1-0.1-0.1-0.3,0-0.4l0,0l0,0l16.9-17
	c0.7-1,0.5-2.3-0.5-3c-0.8-0.5-1.8-0.5-2.5,0l-17,16.9c-1.6,1.6-1.8,4.2-0.4,6l-7.7,7.6l-7.3-4.1c-1-0.5-2-0.8-3.1-0.8H65.5L64,56.2
	c-1.5-1.5-3.2-2.6-5.1-3.3l-5.7-2.2L50.5,48c1.4-2.4,1-5.4-0.9-7.3L40.9,32c-1-0.7-2.3-0.5-3,0.5c-0.5,0.8-0.5,1.8,0,2.5l8.7,8.7
	c0.7,0.7,0.7,1.7,0,2.4L28.8,63.8c-0.7,1-0.5,2.3,0.5,3c0.8,0.5,1.8,0.5,2.5,0l15.7-15.5l2.8,2.8c0.2,0.2,0.5,0.4,0.8,0.5l6.2,2.4
	c1.3,0.5,2.5,1.3,3.5,2.3l-0.4,0.4l-8.2,8.2c-3.5,3.2-3.7,8.7-0.5,12.2c3.2,3.4,8.5,3.7,12,0.6l6.2-5.1h6.5l7.4,7.4
	c0.9,0.7,2.3,0.5,3-0.4c0.6-0.8,0.6-1.8,0-2.6l-5.3-5.4c0.2-0.3,0.3-0.7,0.3-1.2c0-1.2-1-2.2-2.2-2.2l0,0H69.2c-0.5,0-1,0.2-1.4,0.5
	L61,77.2c-1.9,1.5-4.6,1.1-6.1-0.7c-1.3-1.7-1.2-4.1,0.3-5.6l8.2-8.2c0.3-0.3,0.7-0.5,1.1-0.5h21.7c0.4,0,0.7,0.1,1,0.3l8,4.5
	c1.2,0.7,2.7,0.5,3.7-0.5l8.5-8.3l23.2,22.2l-3.3,3.4c-0.7,1-0.5,2.3,0.5,3c0.8,0.5,1.8,0.5,2.5,0l3.5-3.5c1.8,1.4,4.4,1.2,6-0.4
	l8-8.1C148.8,73.9,148.8,72.5,148,71.7L148,71.7z"/>
</svg>
